<svg width="418" height="74" xmlns="http://www.w3.org/2000/svg" xmlns:xlink="http://www.w3.org/1999/xlink">
 <!-- Created with SVG-edit - http://svg-edit.googlecode.com/ -->
 <g>
  <title>Avanti Cycling</title>
  <text style="cursor: move;" xml:space="preserve" text-anchor="middle" font-family="Corbel" font-size="76" id="svg_3" y="54.25" x="311" stroke-width="0" fill="#0a9bb5" stroke="#000000">cycling</text>
  <text style="cursor: move;" stroke-opacity="0" font-weight="bold" xml:space="preserve" text-anchor="middle" font-family="Corbel" font-size="76" id="svg_1" y="54.25" x="101" stroke-width="0" stroke="#000000" fill="#ffffff">avanti</text>
  <text xml:space="preserve" text-anchor="middle" font-family="Corbel" font-size="76" id="svg_8" y="164" x="195" stroke-width="0" stroke="#000000" fill="#000000"/>
  <image x="337.25" y="129.5" id="svg_12" xlink:href="images/logo.png"/>
  <image x="374.75" y="122.5" id="svg_13" xlink:href="images/logo.png"/>
  <path fill="#000000" stroke-width="5" stroke-dasharray="null" stroke-linejoin="null" stroke-linecap="null" id="svg_19" fill-opacity="0" transform="rotate(2.6267051696777344 336.2496643066402,154.403198242188) " stroke="#000000"/>
  <path fill="#000000" stroke="#000000" stroke-width="5" stroke-dasharray="null" stroke-linejoin="null" stroke-linecap="null" id="svg_22" fill-opacity="0"/>
  <path stroke="#0a9bb5" transform="rotate(4.926114082336426 268.5217895507813,16.716245651245046) " fill="#000000" stroke-width="5" stroke-dasharray="null" stroke-linejoin="null" stroke-linecap="null" fill-opacity="0" d="m265.72189,25.46014l5.59982,-17.4878l-5.59982,17.4878z" id="svg_26"/>
  <path transform="rotate(-2.151068687438965 267.8812866210939,16.51114082336376) " stroke="#0a9bb5" fill="#000000" stroke-width="5" stroke-dasharray="null" stroke-linejoin="null" stroke-linecap="null" d="m266.12476,20.51114l3.51309,-8l-3.51309,8z" id="svg_28" fill-opacity="0"/>
  <text fill="#0a9bb5" stroke="#000000" stroke-width="0" stroke-dasharray="null" stroke-linejoin="null" stroke-linecap="null" x="291" y="152" id="svg_29" font-size="76" font-family="Corbel" text-anchor="middle" xml:space="preserve"/>
  <path stroke="#0a9bb5" d="m268.68079,16.31294c0,0 1.62201,-14.26833 18.50699,-11.04125l1.51123,0.34316" transform="rotate(1.2989561557769775 278.6898803710939,10.554747581480807) " fill="#000000" stroke-width="5.5" stroke-dasharray="null" stroke-linejoin="null" stroke-linecap="null" fill-opacity="0" id="svg_33"/>
  <path fill="none" stroke="#0a9bb5" stroke-width="5" stroke-dasharray="null" stroke-linejoin="null" stroke-linecap="null" d="m240.52049,24.28125l-2.75,-8.25" id="svg_5" transform="rotate(-3.705831527709961 239.24073791503895,20.156249999999982) "/>
  <path fill="none" stroke="#0a9bb5" stroke-width="5" stroke-dasharray="null" stroke-linejoin="null" stroke-linecap="null" d="m240.78879,23.46296l-2.75,-8.25" transform="rotate(-3.005265235900879 239.41378784179705,19.337959289550767) " id="svg_30"/>
  <path fill="#000000" stroke="#0a9bb5" stroke-width="5" stroke-dasharray="null" stroke-linejoin="null" stroke-linecap="null" d="m238.25,17.625l-1,-2.3125c0,0 -1.625,-4.875 -12.25,-2.75l-0.5625,0.125" id="svg_36" fill-opacity="0"/>
  <path d="m239,17.7307l-1,-2.3125c0,0 -1.625,-4.875 -12.25,-2.75l-0.562,0.125" fill="#000000" stroke="#0a9bb5" stroke-width="5" stroke-dasharray="null" stroke-linejoin="null" stroke-linecap="null" fill-opacity="0" id="svg_37" transform="rotate(2.501622438430786 232.0937499999998,14.93750286102266) "/>
 </g>
</svg>